<?xml version="1.0" encoding="utf-8"?>
<!DOCTYPE svg PUBLIC "-//W3C//DTD SVG 1.1//EN" "http://www.w3.org/Graphics/SVG/1.1/DTD/svg11.dtd">
<svg xmlns="http://www.w3.org/2000/svg" xmlns:xlink="http://www.w3.org/1999/xlink" version="1.1" width="72px" height="40px" viewBox="0 0 72 40" enable-background="new 0 0 72 40" xml:space="preserve">
	<path fill="#08c" d="M10.47,21.39c0,.24-.01,.44-.02,.61s-.03,.3-.05,.41c-.02,.11-.05,.2-.08,.27c-.03,.07-.1,.16-.2,.26s-.28,.24-.52,.39c-.25,.15-.53,.29-.84,.41c-.31,.12-.65,.22-1.02,.29c-.37,.07-.75,.11-1.14,.11c-.87,0-1.65-.15-2.32-.45c-.67-.3-1.24-.73-1.7-1.31s-.8-1.29-1.04-2.12c-.23-.83-.35-1.79-.35-2.87c0-1.24,.14-2.32,.43-3.22c.28-.9,.68-1.65,1.19-2.25s1.11-1.03,1.8-1.32s1.46-.43,2.29-.43c.34,0,.67,.03,1,.1s.63,.15,.92,.26c.28,.11,.54,.24,.76,.38c.22,.14,.38,.26,.48,.36s.16,.19,.2,.26c.04,.07,.07,.16,.09,.27c.02,.11,.04,.25,.05,.41c.01,.16,.02,.36,.02,.59c0,.54-.04,.92-.13,1.13c-.08,.22-.2,.33-.33,.33c-.14,0-.3-.06-.46-.19c-.16-.13-.35-.27-.57-.43c-.22-.16-.48-.3-.79-.43c-.3-.13-.67-.19-1.09-.19c-.83,0-1.47,.35-1.91,1.05c-.44,.7-.66,1.73-.66,3.08c0,.67,.06,1.26,.17,1.77c.11,.51,.27,.94,.49,1.28c.22,.34,.49,.6,.81,.77c.33,.17,.71,.26,1.14,.26c.44,0,.82-.07,1.14-.21c.32-.14,.6-.3,.83-.48c.24-.18,.44-.34,.6-.48c.16-.14,.3-.22,.41-.22c.08,0,.14,.02,.19,.07c.05,.05,.09,.13,.12,.26c.03,.13,.05,.29,.07,.48C10.46,20.83,10.47,21.08,10.47,21.39zM24.12,17.03c0,1.06-.13,2.02-.38,2.9c-.25,.87-.64,1.62-1.16,2.25c-.52,.63-1.17,1.12-1.94,1.46c-.78,.34-1.69,.52-2.73,.52c-1.01,0-1.89-.15-2.63-.46c-.75-.31-1.36-.75-1.86-1.34c-.49-.58-.86-1.3-1.09-2.16s-.36-1.83-.36-2.92c0-1.06,.13-2.02,.39-2.9c.26-.88,.65-1.63,1.16-2.25c.52-.63,1.16-1.11,1.94-1.45c.78-.34,1.68-.51,2.73-.51c1.02,0,1.9,.15,2.64,.45c.75,.3,1.36,.74,1.85,1.33s.85,1.3,1.09,2.16S24.12,15.93,24.12,17.03zM20.82,17.17c0-.61-.04-1.18-.13-1.69c-.09-.52-.24-.96-.45-1.34c-.21-.38-.49-.68-.85-.89c-.35-.21-.79-.32-1.33-.32c-.48,0-.89,.1-1.25,.29c-.36,.19-.65,.47-.88,.83c-.23,.37-.4,.81-.52,1.32c-.11,.52-.17,1.1-.17,1.76c0,.61,.05,1.18,.14,1.69c.09,.51,.24,.96,.45,1.34c.21,.38,.49,.68,.85,.88c.36,.21,.8,.31,1.32,.31c.48,0,.9-.09,1.26-.29c.36-.19,.65-.47,.88-.83c.23-.36,.4-.8,.51-1.31C20.77,18.41,20.82,17.83,20.82,17.17zM37.4,23.36c0,.1-.02,.19-.06,.26c-.04,.07-.11,.13-.21,.17c-.1,.05-.24,.08-.41,.1c-.17,.02-.39,.03-.64,.03c-.27,0-.49-.01-.66-.03s-.31-.05-.41-.1c-.11-.05-.18-.1-.23-.17c-.05-.07-.07-.16-.07-.26v-1.38c-.58,.69-1.2,1.22-1.84,1.6c-.64,.38-1.35,.57-2.13,.57c-.86,0-1.59-.18-2.19-.55c-.6-.37-1.08-.86-1.46-1.48c-.38-.62-.65-1.35-.82-2.18c-.17-.83-.25-1.7-.25-2.62c0-1.1,.11-2.1,.32-2.98c.22-.88,.53-1.63,.95-2.25s.93-1.1,1.55-1.43c.62-.33,1.33-.5,2.14-.5c.64,0,1.21,.14,1.73,.42c.52,.28,1.03,.7,1.54,1.25V5.1c0-.09,.02-.18,.07-.25c.05-.07,.13-.14,.25-.19c.12-.05,.29-.09,.49-.12c.2-.03,.46-.04,.78-.04s.57,.01,.78,.04c.2,.03,.36,.07,.48,.12c.12,.05,.2,.11,.25,.19S37.4,5.01,37.4,5.1V23.36zM34.22,15.07c-.46-.63-.9-1.11-1.32-1.45c-.42-.33-.86-.5-1.32-.5c-.42,0-.77,.11-1.07,.34c-.3,.23-.54,.53-.72,.91s-.32,.81-.41,1.27c-.09,.47-.13,.95-.13,1.44c0,.52,.04,1.03,.11,1.52s.2,.93,.38,1.31c.17,.39,.4,.69,.69,.93c.29,.23,.65,.35,1.09,.35c.22,0,.43-.04,.64-.1c.21-.07,.42-.18,.64-.34c.22-.16,.44-.36,.67-.62c.23-.25,.48-.57,.75-.94V15.07zM44.06,6.74c0,.71-.13,1.19-.39,1.46c-.26,.27-.75,.4-1.46,.4c-.72,0-1.21-.13-1.46-.39s-.38-.73-.38-1.41c0-.71,.13-1.19,.39-1.47c.26-.27,.75-.41,1.47-.41c.71,0,1.2,.13,1.45,.4C43.93,5.6,44.06,6.07,44.06,6.74zM43.82,23.36c0,.09-.03,.17-.08,.24s-.14,.13-.26,.17c-.12,.05-.29,.08-.49,.1c-.21,.02-.46,.04-.78,.04c-.31,0-.57-.01-.78-.04c-.2-.02-.37-.06-.49-.1c-.12-.05-.21-.1-.26-.17s-.08-.15-.08-.24V10.98c0-.09,.03-.17,.08-.24c.05-.07,.14-.13,.26-.18c.12-.05,.29-.09,.49-.12s.46-.04,.78-.04c.31,0,.57,.01,.78,.04c.2,.03,.37,.07,.49,.12c.12,.05,.21,.11,.26,.18c.05,.07,.08,.15,.08,.24V23.36zM57.84,23.36c0,.09-.03,.17-.08,.24s-.13,.13-.25,.17c-.12,.05-.28,.08-.49,.1c-.21,.02-.46,.04-.77,.04c-.31,0-.57-.01-.78-.04c-.21-.02-.37-.06-.49-.1c-.12-.05-.2-.1-.25-.17s-.08-.15-.08-.24v-7.08c0-.6-.04-1.08-.12-1.42s-.2-.64-.35-.88c-.15-.25-.35-.44-.59-.57c-.24-.13-.52-.2-.84-.2c-.41,0-.82,.16-1.23,.49c-.41,.33-.85,.8-1.29,1.42v8.25c0,.09-.03,.17-.08,.24s-.14,.13-.26,.17c-.12,.05-.29,.08-.49,.1c-.21,.02-.46,.04-.78,.04c-.31,0-.57-.01-.78-.04c-.2-.02-.37-.06-.49-.1c-.12-.05-.21-.1-.26-.17s-.08-.15-.08-.24V10.95c0-.09,.02-.17,.06-.24c.04-.07,.12-.13,.23-.17c.11-.05,.25-.08,.43-.1c.17-.02,.39-.04,.65-.04c.27,0,.5,.01,.67,.04c.18,.02,.32,.06,.41,.1c.1,.05,.17,.1,.21,.17c.04,.07,.06,.15,.06,.24v1.43c.63-.74,1.26-1.3,1.91-1.67s1.32-.56,2.03-.56c.77,0,1.42,.14,1.95,.42s.96,.66,1.28,1.13s.56,1.04,.71,1.68c.14,.64,.22,1.41,.22,2.31V23.36zM71.19,11.81c0,.45-.05,.77-.14,.99c-.09,.21-.21,.32-.34,.32h-1.33c.19,.22,.32,.48,.4,.76c.08,.28,.12,.58,.12,.88c0,.72-.11,1.37-.33,1.93s-.54,1.03-.95,1.42c-.41,.39-.91,.68-1.49,.88s-1.23,.3-1.94,.3c-.37,0-.71-.05-1.04-.15c-.33-.1-.58-.21-.76-.34c-.1,.12-.19,.26-.27,.43C63.04,19.4,63,19.58,63,19.79c0,.27,.11,.49,.32,.66c.21,.17,.52,.27,.91,.29l2.76,.11c.64,.03,1.22,.13,1.72,.3s.93,.41,1.27,.72c.34,.31,.61,.68,.79,1.12c.18,.44,.27,.93,.27,1.49c0,.61-.12,1.19-.37,1.73c-.24,.54-.61,1.01-1.11,1.41c-.49,.4-1.11,.71-1.85,.95c-.74,.23-1.61,.35-2.6,.35c-.97,0-1.79-.08-2.47-.25s-1.24-.4-1.68-.7c-.44-.3-.75-.65-.95-1.07c-.2-.41-.3-.87-.3-1.36c0-.31,.04-.6,.11-.88s.18-.54,.32-.8c.14-.26,.31-.5,.52-.73c.2-.23,.44-.45,.7-.67c-.36-.21-.64-.5-.84-.87c-.2-.37-.3-.77-.3-1.2c0-.55,.11-1.05,.34-1.5c.23-.45,.53-.86,.89-1.22c-.3-.32-.53-.71-.71-1.17c-.18-.45-.27-1.02-.27-1.7c0-.72,.12-1.37,.35-1.94c.23-.57,.56-1.05,.97-1.45c.41-.39,.91-.7,1.49-.9s1.21-.31,1.91-.31c.36,0,.7,.02,1.02,.07c.33,.05,.63,.11,.91,.19h3.6c.14,0,.26,.1,.35,.31C71.15,10.99,71.19,11.33,71.19,11.81zM67.84,24.66c0-.42-.15-.74-.46-.96c-.3-.22-.72-.34-1.26-.36l-2.28-.07c-.22,.18-.4,.35-.53,.51s-.24,.32-.32,.47s-.13,.29-.16,.43c-.03,.14-.04,.28-.04,.43c0,.46,.21,.82,.64,1.06s1.03,.36,1.81,.36c.48,0,.89-.05,1.22-.16c.33-.11,.6-.25,.8-.42c.2-.18,.35-.37,.43-.59S67.84,24.9,67.84,24.66zM67.09,14.75c0-.67-.17-1.19-.51-1.56c-.34-.37-.82-.56-1.44-.56c-.31,0-.59,.06-.83,.17c-.24,.12-.44,.27-.59,.47c-.16,.2-.27,.43-.35,.7c-.08,.26-.11,.54-.11,.83c0,.63,.17,1.13,.51,1.5c.34,.37,.81,.55,1.41,.55c.32,0,.6-.06,.84-.17c.24-.11,.43-.26,.59-.46s.28-.42,.36-.67C67.05,15.29,67.09,15.03,67.09,14.75zM4.92,32.68c0,.37-.06,.7-.18,.99s-.28,.52-.49,.72c-.21,.19-.46,.34-.76,.43c-.29,.1-.61,.14-.95,.14c-.21,0-.4-.02-.59-.06c-.19-.04-.35-.08-.5-.14c-.15-.06-.27-.12-.37-.17c-.1-.06-.17-.11-.22-.17s-.08-.13-.1-.24c-.02-.11-.04-.27-.04-.49c0-.14,0-.26,.01-.34s.02-.16,.04-.21c.02-.05,.04-.09,.06-.1c.02-.02,.06-.03,.09-.03c.04,0,.11,.03,.2,.09s.2,.13,.33,.2c.13,.07,.28,.14,.46,.21c.17,.06,.37,.1,.59,.1c.14,0,.26-.02,.37-.05c.11-.04,.2-.08,.28-.15c.08-.06,.14-.14,.18-.24s.06-.21,.06-.34c0-.15-.04-.27-.11-.38c-.08-.11-.18-.2-.3-.28c-.13-.08-.27-.15-.42-.22c-.16-.07-.32-.15-.49-.23c-.17-.08-.33-.18-.49-.29c-.16-.11-.3-.24-.42-.4c-.13-.16-.23-.35-.3-.57c-.08-.22-.11-.49-.11-.8c0-.32,.05-.6,.15-.87c.1-.26,.25-.49,.44-.68c.19-.19,.43-.33,.7-.44c.28-.1,.59-.16,.93-.16c.17,0,.34,.01,.5,.04c.16,.03,.31,.07,.44,.11s.24,.09,.33,.14c.09,.05,.15,.1,.19,.13C4.5,28,4.53,28.04,4.54,28.08s.03,.08,.04,.13c.01,.05,.02,.12,.02,.19c.01,.08,.01,.17,.01,.29c0,.13,0,.24-.01,.32c-.01,.08-.02,.15-.03,.2c-.01,.05-.03,.08-.06,.1c-.02,.02-.05,.03-.09,.03c-.04,0-.09-.03-.17-.08c-.08-.05-.18-.11-.29-.17c-.12-.06-.25-.11-.41-.17s-.33-.08-.53-.08c-.14,0-.26,.02-.36,.05c-.1,.03-.19,.08-.25,.15c-.07,.06-.11,.14-.15,.22c-.03,.09-.05,.18-.05,.28c0,.15,.04,.28,.12,.38c.08,.1,.18,.19,.31,.27c.13,.08,.27,.15,.43,.22c.16,.07,.33,.14,.49,.23s.33,.18,.49,.28s.31,.24,.43,.4c.13,.16,.23,.35,.31,.57C4.88,32.12,4.92,32.38,4.92,32.68zM9.18,33.89c0,.22-.01,.38-.03,.5s-.05,.2-.09,.24c-.04,.05-.09,.09-.16,.13s-.16,.07-.25,.1s-.2,.05-.31,.06c-.11,.01-.23,.02-.34,.02c-.31,0-.57-.05-.8-.14c-.23-.09-.41-.24-.56-.43s-.26-.44-.33-.73c-.07-.29-.1-.64-.1-1.05v-3.37H5.54c-.08,0-.14-.06-.18-.17c-.04-.12-.06-.31-.06-.58c0-.14,.01-.26,.02-.36s.03-.18,.05-.23s.05-.1,.08-.12s.07-.04,.11-.04H6.2v-1.47c0-.05,.01-.09,.03-.13c.02-.04,.06-.07,.12-.1c.06-.03,.14-.05,.24-.06c.1-.01,.22-.02,.37-.02c.15,0,.28,.01,.38,.02c.1,.01,.18,.03,.24,.06c.06,.03,.1,.06,.12,.1c.02,.04,.04,.08,.04,.13v1.47h1.19c.04,0,.08,.01,.11,.04s.06,.07,.08,.12S9.16,28,9.17,28.1s.02,.22,.02,.36c0,.27-.02,.46-.06,.58c-.04,.12-.1,.17-.18,.17h-1.2v3.09c0,.36,.05,.63,.14,.81c.09,.18,.26,.27,.5,.27c.08,0,.16-.01,.22-.03c.07-.02,.12-.04,.17-.06c.05-.02,.09-.04,.13-.06c.03-.02,.07-.03,.1-.03c.02,0,.05,.01,.07,.03c.02,.02,.04,.05,.05,.1c.01,.05,.02,.12,.03,.21S9.18,33.75,9.18,33.89zM13.48,34.79l-.66,2.33c-.04,.12-.14,.21-.3,.27c-.16,.05-.4,.08-.72,.08c-.16,0-.29-.01-.39-.03c-.1-.02-.17-.05-.22-.08c-.05-.04-.08-.09-.08-.15c0-.06,.01-.13,.04-.21l.73-2.21c-.05-.03-.1-.08-.14-.14c-.04-.06-.07-.13-.1-.2l-1.89-6.05c-.05-.17-.08-.3-.08-.39s.02-.16,.07-.21s.13-.09,.25-.11s.27-.03,.46-.03c.18,0,.32,0,.42,.01c.1,.01,.18,.03,.24,.06c.06,.03,.1,.08,.13,.14s.06,.15,.09,.26l1.29,4.41h.02l1.18-4.5c.02-.13,.06-.21,.1-.25c.04-.04,.1-.07,.19-.09c.09-.02,.25-.03,.47-.03c.18,0,.32,.01,.44,.03s.2,.06,.26,.11c.06,.05,.08,.13,.08,.22c0,.09-.02,.2-.05,.32L13.48,34.79zM17.81,34.54c0,.05-.01,.09-.04,.13s-.07,.07-.13,.09s-.14,.04-.24,.05c-.1,.01-.22,.02-.37,.02c-.15,0-.28-.01-.38-.02c-.1-.01-.18-.03-.24-.05c-.06-.02-.1-.06-.13-.09c-.02-.04-.04-.08-.04-.13v-9.71c0-.05,.01-.09,.04-.13c.02-.04,.07-.07,.13-.1c.06-.03,.14-.05,.24-.06s.22-.02,.38-.02c.15,0,.28,.01,.37,.02c.1,.01,.18,.04,.24,.06c.06,.03,.1,.06,.13,.1c.02,.04,.04,.08,.04,.13V34.54zM24.42,31.06c0,.23-.04,.39-.13,.5s-.2,.16-.35,.16h-3.34c0,.28,.03,.54,.08,.76c.06,.23,.14,.42,.26,.58c.12,.16,.28,.28,.47,.37s.42,.13,.69,.13c.27,0,.51-.02,.71-.07c.21-.05,.38-.1,.53-.16s.27-.11,.37-.16c.1-.05,.18-.07,.24-.07c.04,0,.07,.01,.09,.03s.04,.05,.06,.09c.02,.04,.03,.11,.03,.19c.01,.08,.01,.18,.01,.31c0,.11,0,.2-.01,.28c0,.08-.01,.14-.02,.2c-.01,.05-.02,.1-.04,.14c-.02,.04-.04,.07-.06,.11s-.1,.08-.22,.14c-.12,.06-.27,.12-.45,.17c-.18,.06-.4,.11-.63,.15c-.24,.04-.49,.06-.76,.06c-.49,0-.91-.07-1.28-.22s-.67-.37-.92-.67c-.25-.3-.43-.68-.55-1.14c-.12-.46-.18-.99-.18-1.61c0-.59,.06-1.11,.19-1.58c.13-.47,.31-.87,.55-1.2s.54-.58,.88-.75c.35-.17,.74-.26,1.17-.26c.46,0,.85,.08,1.18,.24c.33,.16,.59,.39,.8,.67c.21,.29,.36,.63,.46,1.02c.1,.39,.15,.82,.15,1.29V31.06zM22.92,30.52c.01-.52-.07-.93-.26-1.23s-.47-.45-.86-.45c-.2,0-.37,.04-.51,.13c-.15,.09-.27,.21-.36,.36c-.1,.15-.17,.33-.22,.53s-.08,.42-.09,.65H22.92zM33.48,28.41c0,.24-.02,.41-.07,.52c-.05,.11-.1,.17-.17,.17H32.6c.09,.12,.15,.25,.19,.4c.04,.15,.06,.31,.06,.47c0,.38-.05,.72-.16,1.02s-.26,.55-.46,.75c-.2,.21-.44,.36-.72,.47c-.28,.11-.59,.16-.94,.16c-.18,0-.34-.03-.5-.08c-.16-.05-.28-.11-.37-.18c-.05,.06-.09,.14-.13,.23c-.04,.09-.06,.19-.06,.29c0,.14,.05,.26,.16,.35c.1,.09,.25,.14,.44,.15l1.33,.06c.31,.01,.59,.07,.83,.16c.24,.09,.45,.22,.61,.38c.17,.17,.29,.36,.38,.59c.09,.23,.13,.49,.13,.79c0,.32-.06,.63-.18,.92c-.12,.29-.3,.54-.53,.75s-.54,.38-.89,.5c-.36,.12-.78,.18-1.26,.18c-.47,0-.87-.04-1.2-.13c-.33-.09-.6-.21-.81-.37c-.21-.16-.36-.35-.46-.56c-.1-.22-.14-.46-.14-.72c0-.16,.02-.32,.05-.46c.03-.15,.09-.29,.15-.42c.07-.14,.15-.26,.25-.39c.1-.12,.21-.24,.34-.35c-.18-.11-.31-.27-.41-.46s-.14-.41-.14-.64c0-.29,.06-.55,.17-.79c.11-.24,.25-.45,.43-.65c-.14-.17-.26-.38-.34-.62c-.09-.24-.13-.54-.13-.9c0-.38,.06-.73,.17-1.03c.11-.3,.27-.56,.47-.77s.44-.37,.72-.48c.28-.11,.59-.17,.92-.17c.17,0,.34,.01,.49,.04c.16,.03,.3,.06,.44,.1h1.74c.07,0,.13,.05,.17,.16C33.46,27.97,33.48,28.16,33.48,28.41zM31.85,35.23c0-.22-.07-.39-.22-.51s-.35-.18-.61-.19l-1.1-.04c-.11,.09-.19,.18-.25,.27s-.11,.17-.15,.25c-.04,.08-.06,.16-.08,.23c-.01,.07-.02,.15-.02,.23c0,.25,.1,.43,.31,.56c.21,.13,.5,.19,.88,.19c.23,0,.43-.03,.59-.08c.16-.06,.29-.13,.39-.23c.1-.09,.17-.2,.21-.31C31.83,35.48,31.85,35.35,31.85,35.23zM31.49,29.97c0-.35-.08-.63-.25-.83c-.16-.2-.4-.29-.69-.29c-.15,0-.28,.03-.4,.09s-.21,.15-.29,.25c-.08,.11-.13,.23-.17,.37c-.04,.14-.06,.29-.06,.44c0,.33,.08,.6,.25,.79c.16,.19,.39,.29,.68,.29c.16,0,.29-.03,.41-.09c.11-.06,.21-.14,.29-.24c.08-.1,.13-.22,.17-.36C31.47,30.26,31.49,30.12,31.49,29.97zM39.7,34.54c0,.05-.01,.09-.03,.13c-.02,.04-.06,.07-.11,.09c-.05,.02-.12,.04-.2,.05c-.08,.01-.19,.02-.32,.02c-.13,0-.25-.01-.33-.02c-.08-.01-.15-.03-.2-.05s-.08-.06-.1-.09c-.02-.04-.03-.08-.03-.13v-.76c-.3,.39-.61,.69-.93,.89c-.31,.2-.64,.3-.97,.3c-.38,0-.69-.07-.95-.22s-.46-.35-.62-.61s-.27-.55-.34-.89c-.07-.34-.1-.76-.1-1.26v-4.03c0-.05,.01-.09,.03-.13s.06-.07,.12-.09c.06-.02,.14-.04,.24-.05c.1-.01,.22-.02,.37-.02c.15,0,.28,.01,.38,.02c.1,.01,.18,.03,.24,.05c.06,.03,.1,.06,.13,.09c.02,.04,.04,.08,.04,.13v3.72c0,.34,.02,.61,.06,.79c.04,.18,.09,.34,.17,.47c.08,.13,.17,.23,.29,.3c.12,.07,.25,.11,.41,.11c.2,0,.39-.09,.59-.26c.2-.17,.41-.42,.64-.75v-4.38c0-.05,.01-.09,.03-.13c.02-.04,.06-.07,.12-.09c.06-.02,.14-.04,.24-.05c.1-.01,.22-.02,.38-.02s.28,.01,.38,.02c.1,.01,.18,.03,.23,.05c.06,.03,.1,.06,.12,.09c.02,.04,.04,.08,.04,.13V34.54zM42.92,25.73c0,.37-.06,.63-.19,.78s-.36,.21-.71,.21c-.35,0-.58-.07-.71-.21s-.18-.39-.18-.75c0-.37,.06-.63,.19-.78c.13-.15,.36-.22,.71-.22c.34,0,.58,.07,.7,.21C42.86,25.12,42.92,25.37,42.92,25.73zM42.8,34.54c0,.05-.01,.09-.04,.13c-.02,.04-.07,.07-.13,.09c-.06,.02-.14,.04-.24,.05c-.1,.01-.22,.02-.38,.02c-.15,0-.28-.01-.38-.02c-.1-.01-.18-.03-.24-.05c-.06-.02-.1-.06-.13-.09c-.02-.04-.04-.08-.04-.13v-6.57c0-.05,.01-.09,.04-.13c.03-.04,.07-.07,.13-.1c.06-.03,.14-.05,.24-.06c.1-.01,.22-.02,.38-.02c.15,0,.28,.01,.38,.02c.1,.02,.18,.04,.24,.06c.06,.03,.1,.06,.13,.1c.03,.04,.04,.08,.04,.13V34.54zM49.55,34.54c0,.05-.01,.1-.03,.14c-.02,.04-.05,.07-.1,.09s-.12,.04-.2,.05s-.19,.01-.31,.01c-.13,0-.24,0-.32-.01s-.15-.03-.2-.05s-.09-.05-.11-.09c-.02-.04-.03-.08-.03-.14v-.73c-.28,.36-.58,.65-.89,.85c-.31,.2-.65,.3-1.03,.3c-.42,0-.77-.1-1.06-.29c-.29-.19-.52-.46-.71-.79c-.18-.33-.31-.71-.4-1.16s-.12-.9-.12-1.39c0-.58,.05-1.11,.16-1.58c.1-.47,.26-.87,.46-1.2c.2-.33,.45-.58,.75-.76c.3-.18,.64-.27,1.03-.27c.31,0,.59,.08,.84,.23s.5,.37,.74,.66v-3.57c0-.05,.01-.09,.03-.13c.02-.04,.06-.07,.12-.1c.06-.03,.14-.05,.24-.06s.22-.02,.38-.02c.15,0,.28,.01,.38,.02c.1,.01,.18,.04,.23,.06c.06,.03,.1,.06,.12,.1c.03,.04,.04,.08,.04,.13V34.54zM48.01,30.14c-.22-.33-.43-.59-.64-.77c-.2-.18-.42-.27-.64-.27c-.2,0-.37,.06-.52,.18c-.14,.12-.26,.28-.35,.48c-.09,.2-.15,.43-.2,.67c-.04,.25-.06,.5-.06,.76c0,.28,.02,.54,.06,.8c.04,.26,.1,.49,.18,.7s.2,.37,.34,.49s.31,.18,.53,.18c.11,0,.21-.02,.31-.06c.1-.04,.2-.1,.31-.18c.1-.08,.21-.19,.32-.33c.11-.13,.23-.3,.36-.5V30.14zM56.17,31.06c0,.23-.04,.39-.13,.5s-.2,.16-.35,.16h-3.34c0,.28,.03,.54,.08,.76c.05,.23,.14,.42,.26,.58s.28,.28,.47,.37s.42,.13,.69,.13c.27,0,.51-.02,.71-.07s.38-.1,.53-.16s.27-.11,.37-.16c.1-.05,.18-.07,.24-.07c.04,0,.07,.01,.09,.03c.03,.02,.04,.05,.06,.09c.02,.04,.03,.11,.03,.19s.01,.18,.01,.31c0,.11,0,.2-.01,.28c0,.08-.01,.14-.02,.2c-.01,.05-.02,.1-.04,.14c-.02,.04-.04,.07-.06,.11c-.03,.03-.1,.08-.22,.14c-.12,.06-.27,.12-.46,.17c-.19,.06-.4,.11-.63,.15c-.24,.04-.49,.06-.76,.06c-.49,0-.91-.07-1.28-.22c-.37-.15-.67-.37-.92-.67c-.25-.3-.43-.68-.55-1.14c-.12-.46-.18-.99-.18-1.61c0-.59,.06-1.11,.19-1.58s.31-.87,.55-1.2c.24-.33,.54-.58,.88-.75c.35-.17,.74-.26,1.17-.26c.46,0,.85,.08,1.18,.24c.33,.16,.59,.39,.8,.67c.21,.29,.36,.63,.46,1.02c.1,.39,.15,.82,.15,1.29V31.06zM54.67,30.52c.01-.52-.07-.93-.26-1.23c-.19-.3-.47-.45-.86-.45c-.2,0-.37,.04-.51,.13c-.15,.09-.27,.21-.36,.36c-.1,.15-.17,.33-.22,.53c-.05,.2-.08,.42-.09,.65H54.67z"/>
</svg>
